# xmcd
#
# Track frame offsets:
#	150
#	881
#	4587
#	17062
#	29103
#	31682
#	48210
#	65265
#	81563
#	93600
#	104840
#	120271
#	138157
#	155206
#	170536
#	192797
#	195074
#	210990
#	214243
#	232618
#	250417
#	253045
#	268637
#	280710
#	298363
#	314979
#	330570
#	356233
#	356856
#	357491
#
# Disc length: 4772 seconds
#
# Revision: 0
# Processed by: cddbd v1.5.2PL0 Copyright (c) Steve Scherf et al.
# Submitted via: audiograbber 1.83.01
#
DISCID=c012a21e
DTITLE=Country Hotdisc - Country Hotdisc 093
DYEAR=2006
DGENRE=Country
TTITLE0=Intro  - Intro 
TTITLE1=Soundbite  - Lucia Diamond
TTITLE2=Don´t Even Think About It  - Lucia Diamond
TTITLE3=Lucie´s Got Diamonds  - Tim Hopkind
TTITLE4=Soundbites  - Jacie Storrar
TTITLE5=Which One Take The Blame  - Jackie Storrar
TTITLE6=Jack And Coke Night  - Sean Kristopher
TTITLE7=Dirt  - Lucas Hoge
TTITLE8=In The Vally Of The Sun  - Tommy The Uk Cowboy
TTITLE9=Sing A Sad Song  - Wayne Horsburgh
TTITLE10=Oklahoma Gal  - Ray Pillow
TTITLE11=Seven Years  - Phil Yonger
TTITLE12=Cross That Line  - Laura Lynn
TTITLE13=It Was An Absolutely Finger Linking Grits And Chikin Music Love Song  
TTITLE13=Bomshel
TTITLE14=Blow Ye Mind  - Dr Fry´s Texas Medicine Band
TTITLE15=Soundbite  - Biz From Lantana
TTITLE16=Soundbite  - Lantana
TTITLE17=Soundbite  - Andrew Dean
TTITLE18=A Dozen Red Roses - Andrew Dean and The Farm Machine
TTITLE19=It´s Too Late  - Jo Dee Messina
TTITLE20=Soundbite  - Dan Wesley
TTITLE21=From A Jack To A Joker - Dan Wesley
TTITLE22=Keep Your Hans To Yourself  - Sawyer Brown
TTITLE23=Cowgirl´s Lullabye  - Darcy Lynne Ward
TTITLE24=Ol´ Lonesome Trail  - Gaylynn Robinson
TTITLE25=Fast Track Country Star  - Ron Thompson
TTITLE26=Special Tribute To Kimber Clayton  - Stuart Cameron 
TTITLE27=Radio Liner  - Lucia Diamond
TTITLE28=Radio Liner  - Jackie Storrar
TTITLE29=Radio Liner  - Andrew Dean
EXTD=
EXTT0=
EXTT1=
EXTT2=
EXTT3=
EXTT4=
EXTT5=
EXTT6=
EXTT7=
EXTT8=
EXTT9=
EXTT10=
EXTT11=
EXTT12=
EXTT13=
EXTT14=
EXTT15=
EXTT16=
EXTT17=
EXTT18=
EXTT19=
EXTT20=
EXTT21=
EXTT22=
EXTT23=
EXTT24=
EXTT25=
EXTT26=
EXTT27=
EXTT28=
EXTT29=
PLAYORDER=
